<?xml version="1.0" standalone="no"?>
<!DOCTYPE svg PUBLIC "-//W3C//DTD SVG 20010904//EN"
 "http://www.w3.org/TR/2001/REC-SVG-20010904/DTD/svg10.dtd">
<svg version="1.0" xmlns="http://www.w3.org/2000/svg"
 width="512.000000pt" height="512.000000pt" viewBox="0 0 512.000000 512.000000"
 preserveAspectRatio="xMidYMid meet">
<metadata>
Created by potrace 1.14, written by Peter Selinger 2001-2017
</metadata>
<g transform="translate(0.000000,512.000000) scale(0.100000,-0.100000)"
fill="#000000" stroke="none">
<path d="M770 2510 l0 -2350 1820 0 1820 0 0 1988 0 1987 -363 363 -362 362
-1458 0 -1457 0 0 -2350z m2914 703 l-7 -188 29 27 c56 51 110 72 193 72 148
0 240 -77 241 -203 0 -90 -36 -154 -123 -216 l-28 -20 61 -84 c49 -69 58 -87
45 -93 -8 -5 -61 -7 -117 -6 l-103 3 -45 67 -45 67 -52 1 -52 0 -3 -67 -3 -68
-104 -3 c-57 -1 -108 1 -112 5 -4 4 -8 204 -10 443 l-4 435 70 6 c39 3 94 6
122 7 l53 2 -6 -187z m-2256 75 c128 -280 168 -362 178 -365 6 -2 60 101 121
229 l110 233 118 0 119 0 0 -440 0 -440 -124 0 -125 0 1 210 1 210 -26 -55
c-14 -30 -55 -127 -91 -215 l-67 -160 -37 0 -37 0 -80 180 c-121 276 -110 271
-106 45 2 -107 2 -201 0 -207 -3 -10 -37 -13 -122 -13 l-117 0 0 438 c1 279 5
440 11 444 6 4 59 8 118 8 l108 0 47 -102z m1097 -169 c22 -6 55 -22 73 -36
l32 -24 9 24 c6 14 13 27 18 30 11 6 171 -27 182 -38 5 -6 5 -35 0 -70 -5 -33
-8 -158 -7 -277 1 -120 0 -219 -3 -222 -2 -2 -49 -5 -104 -7 l-100 -4 -3 25
c-6 42 -18 44 -62 9 -36 -29 -50 -34 -110 -37 -86 -5 -140 18 -202 87 -56 62
-81 134 -81 225 1 89 14 140 53 198 39 59 98 99 168 114 73 16 89 16 137 3z
m633 -36 c2 -18 7 -33 11 -33 5 0 29 11 54 25 25 14 68 28 96 32 l52 6 -3
-119 -3 -119 -60 -3 c-33 -1 -70 -4 -82 -7 -36 -8 -46 -61 -42 -219 l4 -141
-110 0 -110 0 -6 230 c-4 127 -12 250 -18 275 -18 75 -16 78 37 85 26 4 65 10
87 15 71 15 90 9 93 -27z m236 -739 c3 -9 6 -44 6 -78 l0 -62 -116 -129 c-178
-198 -582 -592 -632 -616 -59 -29 -101 -20 -162 37 -53 49 -61 72 -79 215 -23
176 -13 245 46 315 39 47 126 70 155 40 8 -7 22 -60 32 -117 20 -113 38 -159
62 -159 21 0 229 197 334 316 114 129 268 254 314 254 22 0 36 -6 40 -16z
m-1677 -119 c56 -17 124 -62 149 -100 41 -63 33 -160 -19 -229 -15 -19 -27
-38 -27 -41 0 -4 15 -25 34 -46 95 -111 59 -265 -78 -337 -47 -25 -60 -27
-166 -27 -132 0 -178 15 -242 79 -39 38 -68 112 -68 170 1 41 31 105 64 135
14 14 26 29 26 34 0 5 -14 27 -32 49 -24 31 -33 53 -36 94 -7 81 20 136 92
187 63 45 207 60 303 32z"/>
<path d="M3766 2935 c-58 -20 -86 -52 -86 -96 0 -45 19 -59 77 -58 82 1 132
37 133 95 0 51 -61 80 -124 59z"/>
<path d="M2427 2910 c-79 -62 -44 -200 55 -216 69 -12 138 47 138 115 0 34
-26 87 -51 105 -34 23 -110 21 -142 -4z"/>
<path d="M1578 2080 c-48 -37 -33 -88 32 -114 22 -9 49 -16 60 -16 45 0 68 91
31 124 -32 29 -91 32 -123 6z"/>
<path d="M1495 1745 c-36 -35 -35 -97 1 -130 21 -20 38 -25 75 -25 60 0 89 24
89 74 0 28 -7 40 -32 59 -27 20 -88 47 -105 47 -2 0 -15 -11 -28 -25z"/>
</g>
</svg>
